HIERARCHY
ROOT Hips
{
    OFFSET 0.000000 0.000000 0.000000
    CHANNELS 6 Xposition Yposition Zposition Zrotation Xrotation Yrotation
    JOINT Spine
    {
        OFFSET -0.000000 7.246840 0.000000
        CHANNELS 3 Zrotation Xrotation Yrotation
        JOINT Spine1
        {
            OFFSET -0.000000 20.289354 0.000000
            CHANNELS 3 Zrotation Xrotation Yrotation
            JOINT Neck
            {
                OFFSET -0.000000 20.206032 1.836912
                CHANNELS 3 Zrotation Xrotation Yrotation
                JOINT Head
                {
                    OFFSET -0.000000 12.372654 -1.767522
                    CHANNELS 3 Zrotation Xrotation Yrotation
                    End Site
                    {
                        OFFSET -0.000000 22.094025 0.000000
                    }
                }
            }
            JOINT LeftShoulder
            {
                OFFSET 3.465871 17.201674 -0.568930
                CHANNELS 3 Zrotation Xrotation Yrotation
                JOINT LeftArm
                {
                    OFFSET 14.070313 0.000000 0.000000
                    CHANNELS 3 Zrotation Xrotation Yrotation
                    JOINT LeftForeArm
                    {
                        OFFSET 26.549477 0.000000 0.000000
                        CHANNELS 3 Zrotation Xrotation Yrotation
                        JOINT LeftHand
                        {
                            OFFSET 18.880413 0.000000 0.000000
                            CHANNELS 3 Zrotation Xrotation Yrotation
                            End Site
                            {
                                OFFSET 13.256415 0.000000 0.000000
                            }
                        }
                    }
                }
            }
            JOINT RightShoulder
            {
                OFFSET -3.526370 17.201674 -0.568930
                CHANNELS 3 Zrotation Xrotation Yrotation
                JOINT RightArm
                {
                    OFFSET -14.070313 0.000000 0.000000
                    CHANNELS 3 Zrotation Xrotation Yrotation
                    JOINT RightForeArm
                    {
                        OFFSET -26.549477 0.000000 0.000000
                        CHANNELS 3 Zrotation Xrotation Yrotation
                        JOINT RightHand
                        {
                            OFFSET -18.880413 0.000000 0.000000
                            CHANNELS 3 Zrotation Xrotation Yrotation
                            End Site
                            {
                                OFFSET -13.256415 0.000000 0.000000
                            }
                        }
                    }
                }
            }
        }
    }
    JOINT LeftUpLeg
    {
        OFFSET 8.837609 0.000000 0.000000
        CHANNELS 3 Zrotation Xrotation Yrotation
        JOINT LeftLeg
        {
            OFFSET -0.000000 -41.345005 0.000000
            CHANNELS 3 Zrotation Xrotation Yrotation
            JOINT LeftFoot
            {
                OFFSET -0.000000 -35.500874 0.000000
                CHANNELS 3 Zrotation Xrotation Yrotation
                JOINT LeftToeBase
                {
                    OFFSET -0.000000 -5.744446 13.256415
                    CHANNELS 3 Zrotation Xrotation Yrotation
                    End Site
                    {
                        OFFSET -0.000000 0.000000 3.535044
                    }
                }
            }
        }
    }
    JOINT RightUpLeg
    {
        OFFSET -8.837609 0.000000 0.000000
        CHANNELS 3 Zrotation Xrotation Yrotation
        JOINT RightLeg
        {
            OFFSET -0.000000 -41.345005 0.000000
            CHANNELS 3 Zrotation Xrotation Yrotation
            JOINT RightFoot
            {
                OFFSET -0.000000 -35.500874 0.000000
                CHANNELS 3 Zrotation Xrotation Yrotation
                JOINT RightToeBase
                {
                    OFFSET -0.000000 -5.744446 13.256415
                    CHANNELS 3 Zrotation Xrotation Yrotation
                    End Site
                    {
                        OFFSET -0.000000 0.000000 3.535044
                    }
                }
            }
        }
    }
}
MOTION
Frames:    14
Frame Time:    0.010000
10.369568    82.395859    -36.812805    4.032810    5.581251    0.552662    -3.687498    -13.381209    -1.177996    -0.617492    0.244413    -0.743965    2.312659    30.246880    -1.746121    -0.059530    -5.869457    -1.509423    19.554104    0.403295    5.757055    -32.314243    9.881269    -12.929040    7.649144    -10.349705    -9.532941    -41.455654    -9.515081    -0.551195    -14.694771    0.619378    13.149413    20.163551    7.918099    11.349738    -3.258615    -3.948224    3.132860    9.433153    -2.818258    12.588229    -3.395857    2.930772    -2.363284    -2.054086    -10.377209    -6.772023    1.684026    2.530048    -3.798548    -1.399872    0.719544    1.951270    -10.154886    1.782830    4.249736    8.744363    -10.551222    3.882635    -1.860327    0.100858    -8.859257    -0.087783    0.189213    0.157102    
10.367316    82.395615    -36.806984    4.035215    5.581640    0.555293    -3.688519    -13.383374    -1.175619    -0.604423    0.244862    -0.741429    2.268458    30.239311    -1.744132    -0.026348    -5.867419    -1.507264    19.514355    0.401664    5.753273    -32.276825    9.880001    -12.939359    7.632305    -10.332173    -9.529695    -41.479229    -9.507918    -0.527231    -14.714242    0.613142    13.136957    20.165178    7.936803    11.356489    -3.255059    -3.952502    3.130464    9.439782    -2.821451    12.594342    -3.397005    2.935749    -2.379407    -2.053052    -10.377806    -6.759041    1.702739    2.531110    -3.803067    -1.388220    0.693659    1.935326    -10.158120    1.788824    4.248753    8.766009    -10.548652    3.834220    -1.876273    0.095143    -8.797783    -0.073042    0.166874    0.130752    
10.363033    82.396118    -36.800514    4.034958    5.585465    0.554165    -3.676872    -13.390106    -1.177229    -0.648918    0.241258    -0.744107    2.337523    30.239735    -1.746125    -0.071828    -5.869760    -1.508541    19.573425    0.419190    5.770396    -32.307823    9.884654    -12.962256    7.644360    -10.291947    -9.518365    -41.529617    -9.477934    -0.498206    -14.669996    0.626162    13.157114    20.151989    7.925393    11.332523    -3.257818    -3.942585    3.156469    9.492502    -2.805756    12.583656    -3.396628    2.932386    -2.354710    -2.057394    -10.368321    -6.738131    1.699938    2.519475    -3.845681    -1.392595    0.709128    1.941247    -10.154501    1.788079    4.266670    8.746480    -10.559029    3.825391    -1.880442    0.099033    -8.826784    -0.098092    0.174003    0.175581    
10.359639    82.396149    -36.794418    4.036080    5.586007    0.558327    -3.680332    -13.393856    -1.176117    -0.640634    0.246455    -0.742545    2.344836    30.225515    -1.742122    -0.098815    -5.870179    -1.508948    19.561975    0.410776    5.766531    -32.290546    9.919305    -12.967083    7.649607    -10.263981    -9.512038    -41.575455    -9.461742    -0.465999    -14.678652    0.622085    13.138816    20.141100    7.932497    11.356830    -3.232252    -3.933224    3.131532    9.502447    -2.796521    12.585842    -3.396088    2.934405    -2.362039    -2.038287    -10.372921    -6.814478    1.684189    2.524752    -3.753365    -1.390884    0.714586    1.938800    -10.153542    1.793793    4.254313    8.744900    -10.552147    3.885253    -1.907431    0.098674    -8.880236    -0.110405    0.181729    0.197605    
10.355173    82.396255    -36.788425    4.036839    5.587151    0.559107    -3.672392    -13.391047    -1.177651    -0.666815    0.231868    -0.745049    2.367450    30.225819    -1.735308    -0.114292    -5.865311    -1.501687    19.589626    0.423826    5.770913    -32.295517    9.934867    -12.975356    7.661658    -10.237469    -9.500835    -41.623066    -9.437366    -0.458910    -14.654218    0.634598    13.149875    20.133356    7.929972    11.341750    -3.229043    -3.931773    3.155144    9.519717    -2.794595    12.561771    -3.393655    2.935912    -2.371873    -2.042295    -10.365561    -6.785204    1.696489    2.511690    -3.774964    -1.391041    0.718596    1.938972    -10.151336    1.798493    4.253306    8.763032    -10.550212    3.819351    -1.881812    0.082431    -8.805053    -0.094145    0.191954    0.168484    
10.351496    82.396576    -36.782082    4.039715    5.588535    0.563257    -3.681020    -13.391937    -1.180264    -0.652290    0.227816    -0.746754    2.361835    30.220629    -1.723738    -0.129577    -5.868686    -1.493473    19.589209    0.420213    5.766884    -32.300926    9.960339    -12.971826    7.667625    -10.251592    -9.493005    -41.618069    -9.449760    -0.463720    -14.667345    0.624205    13.151163    20.137594    7.947771    11.344027    -3.217158    -3.928664    3.130663    9.496471    -2.794230    12.571802    -3.398666    2.938850    -2.361398    -2.030332    -10.370094    -6.818408    1.673900    2.524758    -3.764045    -1.391323    0.677757    1.939833    -10.149720    1.801705    4.251550    8.766068    -10.548289    3.805987    -1.914951    0.080048    -8.792440    -0.097440    0.185787    0.174393    
10.347311    82.395996    -36.775780    4.040871    5.589356    0.564470    -3.694111    -13.394354    -1.179916    -0.608486    0.226284    -0.744880    2.266157    30.209120    -1.707556    -0.067001    -5.857628    -1.478023    19.525229    0.420830    5.760384    -32.251293    9.957933    -12.976318    7.645313    -10.227314    -9.486647    -41.582462    -9.423303    -0.475883    -14.711036    0.630530    13.133247    20.149244    7.965446    11.373712    -3.227897    -3.952427    3.105844    9.486368    -2.821291    12.550830    -3.395360    2.942973    -2.367683    -2.032408    -10.368563    -6.804288    1.672547    2.526993    -3.761736    -1.386276    0.701038    1.932531    -10.154219    1.807433    4.254817    8.757792    -10.559285    3.861251    -1.884537    0.085449    -8.847948    -0.080072    0.184807    0.143309    
10.343653    82.395729    -36.769791    4.043023    5.589675    0.564048    -3.693409    -13.400201    -1.179500    -0.615269    0.229421    -0.744215    2.301104    30.214382    -1.702854    -0.113657    -5.878421    -1.477230    19.537928    0.422913    5.760896    -32.251049    9.967914    -12.980155    7.634073    -10.217877    -9.475545    -41.531647    -9.408866    -0.494278    -14.707570    0.630464    13.137512    20.171923    7.912447    11.378618    -3.242975    -3.942506    3.076796    9.454350    -2.815082    12.553794    -3.389543    2.948222    -2.375472    -2.062042    -10.367081    -6.733170    1.715104    2.510202    -3.835853    -1.396631    0.711359    1.946847    -10.152369    1.813567    4.257452    8.771496    -10.556750    3.816354    -1.925854    0.082555    -8.801737    -0.091884    0.190533    0.164439    
10.338531    82.396065    -36.764481    4.046481    5.593849    0.567305    -3.695281    -13.409368    -1.181657    -0.642842    0.232584    -0.745857    2.360733    30.208000    -1.696132    -0.146268    -5.882020    -1.468460    19.573500    0.429092    5.769623    -32.258259    9.970336    -12.998428    7.640366    -10.196851    -9.468877    -41.511494    -9.392183    -0.482505    -14.663186    0.630918    13.145412    20.162918    7.892259    11.369588    -3.243804    -3.960279    3.060593    9.393968    -2.838447    12.572122    -3.393530    2.945719    -2.365455    -2.041449    -10.368593    -6.797473    1.692997    2.519140    -3.768419    -1.372887    0.679747    1.914109    -10.151163    1.813143    4.255310    8.769600    -10.556150    3.820038    -1.915798    0.075824    -8.811448    -0.085373    0.203774    0.152765    
10.334593    82.395493    -36.757866    4.047228    5.595085    0.565730    -3.701848    -13.413555    -1.180601    -0.617628    0.233301    -0.743873    2.307541    30.209141    -1.689169    -0.103966    -5.898059    -1.460315    19.548038    0.415191    5.768350    -32.235039    9.997368    -12.987177    7.629107    -10.228138    -9.486533    -41.467388    -9.425633    -0.476861    -14.688839    0.632900    13.140803    20.186359    7.851240    11.372572    -3.262639    -3.954348    3.053082    9.401435    -2.830818    12.579082    -3.394508    2.950531    -2.351563    -2.020684    -10.375644    -6.850035    1.667838    2.518755    -3.741736    -1.404696    0.693427    1.958295    -10.150955    1.817941    4.264561    8.775105    -10.562476    3.794006    -1.979629    0.088609    -8.811650    -0.146474    0.163669    0.262213    
10.330497    82.395088    -36.751835    4.051107    5.596138    0.568743    -3.705516    -13.420375    -1.183419    -0.641145    0.235962    -0.746073    2.373069    30.209080    -1.691632    -0.146555    -5.907101    -1.462157    19.594227    0.420313    5.772264    -32.263062    9.991056    -12.995021    7.659014    -10.237967    -9.478867    -41.495010    -9.432628    -0.478954    -14.651157    0.636520    13.146482    20.176954    7.824568    11.365135    -3.258781    -3.942972    3.052735    9.409444    -2.818662    12.579033    -3.395054    2.955599    -2.368811    -2.027371    -10.378092    -6.823398    1.682185    2.518422    -3.762118    -1.404242    0.702851    1.957553    -10.151663    1.822329    4.252944    8.755433    -10.565768    3.866335    -1.914220    0.075453    -8.859976    -0.095965    0.208437    0.171710    
10.325274    82.394669    -36.745651    4.049390    5.597399    0.569682    -3.708459    -13.423619    -1.187007    -0.643270    0.234357    -0.749215    2.383003    30.212233    -1.685608    -0.141030    -5.926041    -1.453368    19.610159    0.422304    5.780763    -32.271179    9.961739    -12.996925    7.666185    -10.211514    -9.488855    -41.522343    -9.412986    -0.456880    -14.632395    0.619142    13.161644    20.164669    7.862734    11.339598    -3.253874    -3.960496    3.066190    9.438610    -2.832347    12.583548    -3.389716    2.959716    -2.357552    -2.020952    -10.383091    -6.880918    1.676237    2.519935    -3.719162    -1.391913    0.704245    1.940351    -10.147677    1.828101    4.261839    8.769988    -10.565008    3.823903    -1.941603    0.065709    -8.821684    -0.095100    0.180125    0.170214    
10.322242    82.393837    -36.740273    4.052559    5.602874    0.568413    -3.721003    -13.427607    -1.187181    -0.610099    0.230244    -0.747871    2.340524    30.203205    -1.681466    -0.131170    -5.927800    -1.453200    19.576401    0.422471    5.785451    -32.240677    9.977328    -12.994866    7.665132    -10.227283    -9.516405    -41.537548    -9.433054    -0.440704    -14.661991    0.616803    13.149746    20.176033    7.825751    11.351601    -3.246744    -3.918850    3.061904    9.511406    -2.782607    12.586936    -3.396395    2.962947    -2.370556    -2.008914    -10.388176    -6.829278    1.653054    2.518997    -3.750738    -1.394474    0.696437    1.944011    -10.151623    1.826156    4.261486    8.784328    -10.563109    3.809698    -1.915450    0.048008    -8.805612    -0.075591    0.221930    0.135235    
10.318069    82.393799    -36.734344    4.053262    5.607093    0.570597    -3.724142    -13.432757    -1.190589    -0.612572    0.223234    -0.750689    2.379086    30.199072    -1.685790    -0.173612    -5.920076    -1.460716    19.592094    0.423905    5.784001    -32.249138    9.960166    -12.982714    7.660378    -10.241800    -9.534975    -41.522182    -9.444126    -0.447900    -14.652493    0.619480    13.157964    20.163040    7.857894    11.345229    -3.229781    -3.925611    3.064338    9.550640    -2.785208    12.589443    -3.394974    2.959310    -2.351065    -2.031491    -10.374234    -6.783227    1.688751    2.508849    -3.824908    -1.410654    0.675380    1.966811    -10.152911    1.829986    4.279155    8.766110    -10.577798    3.852767    -1.933403    0.064585    -8.872437    -0.089744    0.188770    0.160614    
